<svg xmlns="http://www.w3.org/2000/svg" width="152" height="152" viewBox="0 0 152 152">
  <path fill="#FFF" fill-rule="evenodd" d="M76,0 C117.973641,0 152,34.026359 152,76 C152,117.973641 117.973641,152 76,152 C34.026359,152 0,117.973641 0,76 C0,34.026359 34.026359,0 76,0 Z M98.9471826,12 L94.7381711,19.0131405 C118.698793,26.8812107 136,49.4285585 136,76.0158762 C136,109.145225 109.137085,136.001868 76,136.001868 C42.862915,136.001868 16,109.145225 16,76.0158762 C16,49.6944317 32.956913,27.3325617 56.5450187,19.2535757 L57.2618289,19.0131405 L53.0528174,12 C26.7884242,21.4115023 8,46.5200657 8,76.0158762 C8,113.562471 38.444637,144 76,144 C113.555363,144 144,113.562471 144,76.0158762 C144,46.8150238 125.585465,21.9141123 99.7328603,12.2870429 L98.9471826,12 Z M90.4991629,26.0757907 L87.999,30.2415658 L87.9993856,33.6818485 C106.467738,38.9038573 120,55.8799212 120,76.0158762 C120,100.310732 100.300529,120.005603 76,120.005603 C51.699471,120.005603 32,100.310732 32,76.0158762 C32,56.0816414 45.2624899,39.2443038 63.4470664,33.8423196 L63.9996122,33.6821319 L63.999,30.2395663 L61.5008371,26.0757907 C39.8374758,32.3514736 24,52.3345864 24,76.0158762 C24,104.727978 47.281193,128.003736 76,128.003736 C104.718807,128.003736 128,104.727978 128,76.0158762 C128,52.5713993 112.47769,32.7515057 91.1473059,26.2681634 L90.4991629,26.0757907 Z M70,8 L60,8 L72,28 L72.0001262,40.2197012 C54.0002636,42.2094209 40,57.4697421 40,76 C40,95.882251 56.117749,112 76,112 C95.882251,112 112,95.882251 112,76 C112,57.655384 98.2788493,42.5155145 80.5396443,40.2834878 L80.0008727,40.2198116 L80,28 L92,8 L82,8 L76,20 L70,8 Z M77.1297071,52 C86.3682008,52 93.7991632,59.3690141 93.7991632,68.6985915 C93.7991632,75.201252 89.9298173,80.6619139 84.7862146,83.2269295 L84.4937238,83.3690141 L94,100 L84.4937238,100 L76.0585774,85.4647887 L70,85.4647887 L70,100 L62.0669456,100 L62,52 L77.1297071,52 Z M76.719457,60 L70,60 L70,78 L76.719457,78 C81.3348416,78 85,74.3448276 85,69.0344828 C85,63.8884013 81.4669085,60.1384098 76.9702466,60.0037477 L76.719457,60 Z"/>
</svg>
